<?xml version="1.0" encoding="us-ascii" standalone="no"?><svg xmlns="http://www.w3.org/2000/svg" xmlns:xlink="http://www.w3.org/1999/xlink" contentStyleType="text/css" height="453px" preserveAspectRatio="none" style="width:407px;height:453px;background:#FFFFFF;" version="1.1" viewBox="0 0 407 453" width="407px" zoomAndPan="magnify"><defs/><g><!--cluster RIA--><g id="cluster_RIA"><rect fill="none" height="341" rx="2.5" ry="2.5" style="stroke:#181818;stroke-width:1.0;" width="361" x="40.5" y="106"/><path d="M77.5,106 L77.5,115.2969 L67.5,125.2969 L40.5,125.2969 " fill="none" style="stroke:#181818;stroke-width:1.0;"/><text fill="#000000" font-family="sans-serif" font-size="14" font-weight="bold" lengthAdjust="spacing" textLength="27" x="43.5" y="119.9951">RIA</text></g><!--entity server--><g id="elem_server"><rect fill="#F1F1F1" height="46.2969" rx="2.5" ry="2.5" style="stroke:#181818;stroke-width:0.5;" width="142" x="142.5" y="279"/><rect fill="#F1F1F1" height="10" style="stroke:#181818;stroke-width:0.5;" width="15" x="264.5" y="284"/><rect fill="#F1F1F1" height="2" style="stroke:#181818;stroke-width:0.5;" width="4" x="262.5" y="286"/><rect fill="#F1F1F1" height="2" style="stroke:#181818;stroke-width:0.5;" width="4" x="262.5" y="290"/><text fill="#000000" font-family="sans-serif" font-size="14" lengthAdjust="spacing" textLength="102" x="157.5" y="311.9951">cdoc2-server</text></g><!--entity broker--><g id="elem_broker"><rect fill="#F1F1F1" height="46.2969" rx="2.5" ry="2.5" style="stroke:#181818;stroke-width:0.5;" width="178" x="106.5" y="141"/><rect fill="#F1F1F1" height="10" style="stroke:#181818;stroke-width:0.5;" width="15" x="264.5" y="146"/><rect fill="#F1F1F1" height="2" style="stroke:#181818;stroke-width:0.5;" width="4" x="262.5" y="148"/><rect fill="#F1F1F1" height="2" style="stroke:#181818;stroke-width:0.5;" width="4" x="262.5" y="152"/><text fill="#000000" font-family="sans-serif" font-size="14" lengthAdjust="spacing" textLength="138" x="121.5" y="173.9951">TLS / LoadBalancer</text></g><!--entity hr--><g id="elem_hr"><ellipse cx="98.5" cy="302" fill="#808080" rx="8" ry="8" style="stroke:#181818;stroke-width:0.5;"/><text fill="#000000" font-family="sans-serif" font-size="14" lengthAdjust="spacing" textLength="70" x="54.5" y="331.9951">heartbeat</text><text fill="#000000" font-family="sans-serif" font-size="14" lengthAdjust="spacing" textLength="88" x="54.5" y="348.292">(monitoring)</text></g><!--entity db--><g id="elem_db"><path d="M194.5,396 C194.5,386 213.5,386 213.5,386 C213.5,386 232.5,386 232.5,396 L232.5,421.2969 C232.5,431.2969 213.5,431.2969 213.5,431.2969 C213.5,431.2969 194.5,431.2969 194.5,421.2969 L194.5,396 " fill="#F1F1F1" style="stroke:#181818;stroke-width:0.5;"/><path d="M194.5,396 C194.5,406 213.5,406 213.5,406 C213.5,406 232.5,406 232.5,396 " fill="none" style="stroke:#181818;stroke-width:0.5;"/><text fill="#000000" font-family="sans-serif" font-size="14" lengthAdjust="spacing" textLength="18" x="204.5" y="422.9951">db</text></g><!--entity mtls--><g id="elem_mtls"><ellipse cx="94.5" cy="14" fill="#000000" rx="8" ry="8" style="stroke:#181818;stroke-width:0.5;"/><text fill="#000000" font-family="sans-serif" font-size="14" lengthAdjust="spacing" textLength="177" x="6" y="43.9951">mTLS with eID certificate</text><text fill="#000000" font-family="sans-serif" font-size="14" lengthAdjust="spacing" textLength="151" x="6" y="60.292">GET /ecc-details/{id}</text></g><!--entity tls--><g id="elem_tls"><ellipse cx="296.5" cy="14" fill="#F1F1F1" rx="8" ry="8" style="stroke:#181818;stroke-width:0.5;"/><text fill="#000000" font-family="sans-serif" font-size="14" lengthAdjust="spacing" textLength="26" x="233" y="43.9951">TLS</text><text fill="#000000" font-family="sans-serif" font-size="14" lengthAdjust="spacing" textLength="123" x="237" y="60.292">POST /ecc-details</text></g><!--link broker to server--><g id="link_broker_server"><path d="M121.9,187.13 C108.64,194.5 96.5,204.22 88.5,217 C80.95,229.06 80.61,237.17 88.5,249 C95.41,259.36 112.4065,267.9681 136.5465,276.9481 " fill="none" id="broker-to-server" style="stroke:#181818;stroke-width:1.0;"/><polygon fill="#181818" points="142.17,279.04,135.1294,272.1531,137.4837,277.2967,132.3401,279.6511,142.17,279.04" style="stroke:#181818;stroke-width:1.0;"/><text fill="#000000" font-family="sans-serif" font-size="13" lengthAdjust="spacing" textLength="113" x="89.5" y="237.5669">POST /ecc-details</text></g><!--link broker to server--><g id="link_broker_server"><path d="M201.4,187.12 C203.65,196.3 206.01,207.1 207.5,217 C210.63,237.82 211.876,255.8054 212.596,272.7954 " fill="none" id="broker-to-server-1" style="stroke:#181818;stroke-width:1.0;"/><polygon fill="#181818" points="212.85,278.79,216.4654,269.6287,212.6383,273.7945,208.4725,269.9674,212.85,278.79" style="stroke:#181818;stroke-width:1.0;"/><text fill="#000000" font-family="sans-serif" font-size="13" lengthAdjust="spacing" textLength="137" x="211.5" y="230.0669">GET /ecc-details/{id}</text><text fill="#000000" font-family="sans-serif" font-size="13" lengthAdjust="spacing" textLength="103" x="228.5" y="245.1997">+eID certificate</text></g><!--link hr to server--><g id="link_hr_server"><path d="M107.93,302 C119.34,302 130.75,302 142.16,302 " fill="none" id="hr-server" style="stroke:#181818;stroke-width:1.0;"/></g><!--link mtls to broker--><g id="link_mtls_broker"><path d="M100.22,23.38 C115.49,45.76 157.62,107.49 180.4,140.88 " fill="none" id="mtls-broker" style="stroke:#181818;stroke-width:1.0;"/></g><!--link tls to broker--><g id="link_tls_broker"><path d="M290.78,23.38 C275.51,45.76 233.38,107.49 210.6,140.88 " fill="none" id="tls-broker" style="stroke:#181818;stroke-width:1.0;"/></g><!--link server to db--><g id="link_server_db"><path d="M213.5,325.16 C213.5,343.02 213.5,361.98 213.5,379.73 " fill="none" id="server-to-db" style="stroke:#181818;stroke-width:1.0;"/><polygon fill="#181818" points="213.5,385.73,217.5,376.73,213.5,380.73,209.5,376.73,213.5,385.73" style="stroke:#181818;stroke-width:1.0;"/></g><!--SRC=[RL1DIyD04BtlhnZQWugi4Oyz28eYXO3LzDPucEnEagN9RjWTBLBotzqcBHZjOTaPvdtCcukQkGkB9EaQjFpPDZVAjKbydRDaMMg3bSTM26EPV8cAODQkqmnsXckWvHCeycnAev0fjo_FQqX8AQc9qJGXsHlTpm03jDm4c1SDgkrlhIYLMrYzPbFUG8aC8She7d7louSPxCL6QQVkRcKW_qN-uu0QIx4vB9L0wb0_OioYZkF2ksqSZnz8UNyaBFwRdWET3PJRwp_99_Uf2JqNX9pRozPPmyuRMrqDcMeFyyhJjuY5zAQgMPuI31UIyhJnj1CZ2AHsEnltquKG6XaB3D5nvG97rUmj7Knq4K_LY_u7]--></g></svg>